# xmcd CD database file
#
# Track frame offsets:
#    150
#    18792
#    27014
#    43730
#    52119
#    70328
#    82391
#    91355
#    106751
#    122218
#    139454
#    154226
#    166648
#    182660
#    199746
#    209357
#    222131
#    239665
#    251799
#    263782
#    279607
#    290253
#    300275
#
# Disc length: 4166 seconds
#
# Submitted via: cddb-tool 0.4.7
#
#blues,classical,country,data,folk,jazz,newage,reggae,rock,soundtrack,misc
#CATEGORY=blues
# Revision: 0
# Processed by: cddbd v1.5.2PL0 Copyright (c) Steve Scherf et al.
#
DISCID=53104417
DTITLE=Stefan Grossman et al. - Country Blues Guitar Festival
DYEAR=1900
DGENRE=Country Blues
TTITLE0=Special Rider Blues
TTITLE1=Pallet On Your Floor
TTITLE2=One Kind Favor
TTITLE3=Crow Jane
TTITLE4=Hard Time Killin Floor Blues
TTITLE5=If You Havent Had Any Hay Get On Down The Rd
TTITLE6=Ragtime Mama Blues
TTITLE7=Someday Baby
TTITLE8=Weeping Willow
TTITLE9=Goin To Brownsville
TTITLE10=Man Of My Own
TTITLE11=Rainy Day Blues
TTITLE12=Strange City Streets
TTITLE13=Easy Street
TTITLE14=Nobody's Fault But Mine
TTITLE15=Come Back Baby
TTITLE16=Moon Goin Down
TTITLE17=Motherless Children
TTITLE18=Wake Up Mama
TTITLE19=Morning Blues
TTITLE20=Pallet On Your Floor
TTITLE21=Jubilee Jamboree
TTITLE22=Good Morning Little School Boy
EXTD=
EXTT0=
EXTT1=
EXTT2=
EXTT3=
EXTT4=
EXTT5=
EXTT6=
EXTT7=
EXTT8=
EXTT9=
EXTT10=
EXTT11=
EXTT12=
EXTT13=
EXTT14=
EXTT15=
EXTT16=
EXTT17=
EXTT18=
EXTT19=
EXTT20=
EXTT21=
EXTT22=
PLAYORDER=
